<svg xmlns="http://www.w3.org/2000/svg" xmlns:xlink="http://www.w3.org/1999/xlink" viewBox="0 0 82 81" fill="#fff" fill-rule="evenodd" stroke="#000" stroke-linecap="round" stroke-linejoin="round"><use xlink:href="#A" x=".5" y=".5"/><symbol id="A" overflow="visible"><g stroke="none"><path d="M66.152 73.439H13.742a7.31 7.31 0 0 1-7.281-7.282V13.744a7.31 7.31 0 0 1 7.281-7.282h52.409a7.31 7.31 0 0 1 7.281 7.282v52.413a7.31 7.31 0 0 1-7.281 7.282zM13.742 11.263c-1.36 0-2.401 1.12-2.401 2.401v52.413c0 1.36 1.12 2.401 2.401 2.401h52.409c1.36 0 2.4-1.12 2.4-2.401V13.664c0-1.36-1.12-2.401-2.4-2.401H13.742z" fill="#a0a1a2"/><path d="M32.866.7c-1.76-.8-3.841-.96-5.681-.24a7.03 7.03 0 0 0-4.161 3.841l-1.12 2.321h23.604L32.866.7zm46.648 26.486a7.03 7.03 0 0 0-3.841-4.161l-2.32-1.12v23.686l5.921-12.643c.88-1.84.96-3.841.24-5.761zM.7 52.553c-.8 1.76-.96 3.841-.24 5.681a7.03 7.03 0 0 0 3.841 4.161l2.32 1.12V39.91L.7 52.553zM52.549 79.28a7.13 7.13 0 0 0 3.121.72c.88 0 1.68-.16 2.56-.48a7.03 7.03 0 0 0 4.161-3.841h0l1.12-2.321H39.907l12.642 5.921z" fill="#7a7a7a"/><path d="M13.742 11.263c-1.36 0-2.4 1.12-2.4 2.401v52.413c0 1.36 1.12 2.401 2.4 2.401h52.409c1.36 0 2.4-1.12 2.4-2.401V13.664c0-1.36-1.12-2.401-2.4-2.401H13.742z"/><path d="M51.509 34.949h0-10.162l4.241-14.164c.08-.4-.08-.8-.4-.96-.08-.08-.24-.08-.32-.08-.24 0-.48.16-.64.32L27.825 43.991c-.16.24-.16.56-.08.8a.84.84 0 0 0 .72.4h9.842l-4.401 14.404c-.08.4.08.8.4.96.08.08.24.08.32.08.24 0 .48-.16.64-.32l16.883-24.166c.08-.16.16-.32.16-.48 0-.4-.4-.72-.8-.72z" fill="#59b4d9"/></g></symbol></svg>