<svg xmlns="http://www.w3.org/2000/svg" viewBox="0 0 18 18"><defs><linearGradient id="a" x1="3.44" y1="14.22" x2="3.44" y2="10.54" gradientUnits="userSpaceOnUse"><stop offset=".09" stop-color="#32bedd"/><stop offset="1" stop-color="#50e6ff"/></linearGradient><linearGradient id="b" x1="14.51" y1="14.22" x2="14.51" y2="10.54" gradientUnits="userSpaceOnUse"><stop offset=".09" stop-color="#32bedd"/><stop offset="1" stop-color="#50e6ff"/></linearGradient><linearGradient id="c" x1="8.98" y1="4.4" x2="8.98" y2=".71" gradientUnits="userSpaceOnUse"><stop offset=".09" stop-color="#32bedd"/><stop offset="1" stop-color="#50e6ff"/></linearGradient></defs><path d="M7.32 11.84h3.31a.28.28 0 00.27-.22 3.7 3.7 0 011.34-2.15.27.27 0 00.07-.36l-1.72-3a.27.27 0 00-.34-.11A3.87 3.87 0 019 6.23 3.56 3.56 0 017.71 6a.28.28 0 00-.34.13l-1.72 3a.28.28 0 00.07.36 3.7 3.7 0 011.33 2.14.27.27 0 00.27.21zm-2-9.29h-2a.27.27 0 00-.24.14L.54 7.06a.28.28 0 000 .28l.93 1.6a.29.29 0 00.37.12 3.62 3.62 0 011.6-.37 2.69 2.69 0 01.4 0 .31.31 0 00.28-.14l.79-1.35L6.1 5.14a.27.27 0 000-.31 3.65 3.65 0 01-.82-2.28zm9.62.14a.27.27 0 00-.24-.14h-2a3.67 3.67 0 01-.78 2.27.27.27 0 000 .31l1.2 2.07.79 1.37a.28.28 0 00.28.14h.38a3.77 3.77 0 011.61.37.27.27 0 00.31-.08l.93-1.61a.28.28 0 000-.28zm-4.17 10.75H7.18a.28.28 0 00-.27.18 3.64 3.64 0 01-1.39 1.79.29.29 0 00-.09.38l.79 1.36a.29.29 0 00.24.14h5.05a.29.29 0 00.24-.14l.78-1.35a.28.28 0 00-.09-.38 3.68 3.68 0 01-1.4-1.8.28.28 0 00-.27-.18z" fill="#0078d4"/><circle cx="3.44" cy="12.38" r="1.85" fill="url(#a)"/><circle cx="14.51" cy="12.38" r="1.85" fill="url(#b)"/><circle cx="8.98" cy="2.55" r="1.85" fill="url(#c)"/><path d="M14.51 6.42a5.93 5.93 0 00-1.75.26l.3.52.79 1.37a.28.28 0 00.28.14h.38a3.77 3.77 0 011.61.37.27.27 0 00.37-.08l.79-1.36.21-.37a5.88 5.88 0 00-2.98-.85zm-3.61 5.2a3.7 3.7 0 011.34-2.15.27.27 0 00.07-.36l-1-1.76a6 6 0 00-2.73 4.49h2.06a.28.28 0 00.26-.22zm.14 2a.28.28 0 00-.27-.18H8.64a6 6 0 002.5 3.85h.37a.29.29 0 00.24-.14l.78-1.35a.28.28 0 00-.09-.38 3.68 3.68 0 01-1.44-1.8z" fill="#5ea0ef"/></svg>