<svg xmlns="http://www.w3.org/2000/svg" viewBox="0 0 18 18"><defs><linearGradient id="a" x1="5.41" y1="17.33" x2="5.41" y2=".61" gradientUnits="userSpaceOnUse"><stop offset="0" stop-color="#949494"/><stop offset=".53" stop-color="#a2a2a2"/><stop offset="1" stop-color="#b3b3b3"/></linearGradient><linearGradient id="b" x1="10.04" y1="17.39" x2="10.04" y2="6.82" gradientUnits="userSpaceOnUse"><stop offset="0" stop-color="#0078d4"/><stop offset=".16" stop-color="#1380da"/><stop offset=".53" stop-color="#3c91e5"/><stop offset=".82" stop-color="#559cec"/><stop offset="1" stop-color="#5ea0ef"/></linearGradient></defs><path d="M10.32 16.76a.58.58 0 01-.57.57H1.07a.57.57 0 01-.57-.57V1.18a.56.56 0 01.57-.57h8.68a.57.57 0 01.57.57z" fill="url(#a)"/><path d="M1.94 6.47A1.07 1.07 0 013 5.41h4.9A1.07 1.07 0 019 6.47a1.07 1.07 0 01-1.1 1.07H3a1.07 1.07 0 01-1.06-1.07zM1.94 3.31A1.07 1.07 0 013 2.24h4.9A1.07 1.07 0 019 3.31a1.07 1.07 0 01-1.1 1.06H3a1.07 1.07 0 01-1.06-1.06z" fill="#003067"/><circle cx="3.06" cy="3.31" r=".72" fill="#50e6ff"/><circle cx="3.06" cy="6.47" r=".72" fill="#50e6ff"/><path d="M17.5 14.08a3.36 3.36 0 00-2.91-3.22 4.22 4.22 0 00-4.35-4A4.32 4.32 0 006.1 9.64a4 4 0 00-3.52 3.85 4.06 4.06 0 004.2 3.9h7.39a3.39 3.39 0 003.33-3.31z" fill="url(#b)"/><path d="M13.61 14.45v-3.36h-.93v4.12h2.45v-.76zm-7.1-1.65a2.23 2.23 0 01-.51-.31.44.44 0 01-.12-.32.34.34 0 01.15-.3.66.66 0 01.42-.12 1.66 1.66 0 011 .29v-.86a2.89 2.89 0 00-1-.15 1.69 1.69 0 00-1.09.33 1.1 1.1 0 00-.41.89 1.34 1.34 0 00.94 1.2 2.51 2.51 0 01.61.36.42.42 0 01.15.32.34.34 0 01-.15.3.75.75 0 01-.45.12 1.63 1.63 0 01-1.08-.42v.92a2.25 2.25 0 001.03.23A1.91 1.91 0 007.15 15a1.07 1.07 0 00.43-.91 1 1 0 00-.25-.7 2.36 2.36 0 00-.82-.59zm5.16 1.58a2.37 2.37 0 00.33-1.26 2.28 2.28 0 00-.25-1.12 1.77 1.77 0 00-.69-.74A1.94 1.94 0 0010 11a2.21 2.21 0 00-1 .29 1.87 1.87 0 00-.73.77A2.52 2.52 0 008 13.2a2.26 2.26 0 00.24 1.05 1.87 1.87 0 00.68.74 2 2 0 001 .29l.85 1h1.2l-1.19-1.1a1.82 1.82 0 00.89-.8zm-.93-.25a.92.92 0 01-.76.35.91.91 0 01-.75-.36 1.5 1.5 0 01-.28-1 1.46 1.46 0 01.29-1 .92.92 0 01.77-.37.86.86 0 01.74.37 1.54 1.54 0 01.28 1 1.47 1.47 0 01-.29 1.01z" fill="#f2f2f2"/></svg>